<svg id="Warstwa_1" data-name="Warstwa 1" xmlns="http://www.w3.org/2000/svg" viewBox="0 0 1000 1000"><defs><style>.cls-1{fill:#fff;}</style></defs><path class="cls-1" d="M229.57,495.86c-4.8-2.24-7-6.08-9.92-10.88-2.88-4.16-4.8-9-7-14.08a100.3,100.3,0,0,1-5.13-18.55,7.56,7.56,0,0,1-.63-2.57c-.32-1.59-.32-2.88-.65-3.84-.63-3.51-1-6.71-1.27-9.27a15.7,15.7,0,0,1-.32-3.52c-.64-4.8.63-18.88,1-22.4.63-3.2,1-6.72,1.59-9.59,0-1.92.65-3.21,1-5.13,1-3.51,1.61-7.68,2.24-11.51,1.29-3.2,2.56-5.75,3.21-9,1.59-6.39,3.84-13.11,5.76-19.83,1.59-3.2,1.92-6.41,2.88-9.92.63-4.17,1.27-7.68.31-11.84l-1-3.52a4.67,4.67,0,0,0-5.11,2.56,107.36,107.36,0,0,0-9,10.88c-2.24,2.24-2.87,5.43-4.79,8-2.25,2.56-4.17,4.8-6.4,7a2.51,2.51,0,0,1-2.57.65c-.31,0-1-1.28-1-2.24-1.27-4.17-.31-8.64,1-13.12,1.29-8,5.76-12.8,11.21-17.28,6.07-5.12,12.15-6.4,19.51-4.8,5.43,1,8,4.16,10.88,8a8.93,8.93,0,0,1,2.56,4.8,68.79,68.79,0,0,1,1.28,34.24c-.65,4.47-1.92,8.64-2.57,11.83-1.27,7.68-3.51,15-4.8,22.07-1,6.72-3.19,12.48-3.51,19.2-1.27,17,0,37.11,5.76,49,1,2.25,1.92,5.13,3.51,7,1.61,2.88,3.21,4.47,4.8,7,1.61,1.6,3.53,3.52,5.45,2.56l3.84-2.24c6.07-4.8,9.27-13.44,11.52-20.79,2.55-7,4.47-13.44,6.39-20.48,1.92-6.4,2.88-12.16,4.48-18.24,1-3.2,1.6-6.08,2.24-9,2.56-8,2.56-15.67,3.84-19.51a61.24,61.24,0,0,0,1.28-6.72,32.46,32.46,0,0,1,3.2-7.68c1-1,4.16-2.24,5.44-1.92,1.6,0,2.23,1,2.88,2.56a75.79,75.79,0,0,0,1.27,9c1,6.72,2.25,12.15,3.21,17.91a156.5,156.5,0,0,0,3.51,16.64c3.53,9.6,6.09,19.2,9.92,28.8,1.92,3.19,3.84,6.07,7.05,8.31,3.19,1.92,5.43-1,6.39-1.59a11.34,11.34,0,0,0,3.52-7c4.8-12.48,5.76-24.64,6.72-38.4.32-7.35,1-14.4,1.28-22.07,1.28-9.6,1.92-19.51,4.8-29.76a15.84,15.84,0,0,1,7.36-9.27c2.88-1.6,4.79-1,7.67.63,2.88,1.92,4.8,5.12,6.72,7.37a35.22,35.22,0,0,1,3.53,7,119.17,119.17,0,0,0,10.87,18.24c9,17.27,42.88,32.31,62.71,22.4v1a13.22,13.22,0,0,0-1.59,3.19c-9,6.72-32.64,1.92-43.52-1.6-12.8-6.39-25.59-22.07-35.51-39.35-1.29-3.19-9.28-17.91-11.84-11.2a32.27,32.27,0,0,0-2.88,12.16v16a42.86,42.86,0,0,1,0,6.41c-.64,4.8-.32,9.6-.64,14.71,0,3.2-.64,6.72-.32,9.92-.32,4.48-.64,9.92-.64,14.08-.64,5.75-1.28,10.88-1.6,16.31a47.86,47.86,0,0,1-8.32,20.48c-5.11,6.72-16.32,9.92-23.67,6.09-3.21-1.61-5.44-4.8-8.32-8.33-5.45-7-7.37-16.32-9.92-24.63-1.29-5.44-2.88-10.24-3.84-15.36-1-4.8-1.6-9.28-2.24-13.76a14.32,14.32,0,0,0-.32-1.6c-1-5.12-1.6-1-1.92-1-.64,2.25-1,5.13-1.92,7.36-1.28,8-2.56,15-4.48,23-1.6,6.41-4.48,13.13-6.08,18.89-1.91,5.11-3.83,10.23-5.12,14.71a58.62,58.62,0,0,1-9,13.12c-1.6,1.92-9.6,6.08-11.19,6.4C239.48,501,234.37,498.1,229.57,495.86Z"/><path class="cls-1" d="M539.88,394.44c-1.28,1.28-.64,2.24-1.28,2.55-19.52-3.84-35.2,17-41.91,22.08-3.21,3.2-6.72,7-9.93,9.6-2.23,2.56-12.15,12.8-17.59,18.23-1.6,1.61-2.56,3.53-4.48,5.13a38.2,38.2,0,0,1-9.91,7.35c-5.13,2.25-7.68,4.8-13.77,3.84-9.59-1.59-9.59-11.52-11.19-22.07-.32-4.8-1-9.6-.64-14.08,1-12.48,0-25.28,2.24-38.07,1.28-4.8-.64-5.76,7-6.72,2.88,0,7.68-1.92,8-1.92,4.49-.32,5.12,2.88,4.49,8.64-1,4.48-1.61,9.6-2.57,14.71-1.27,8.64-2.88,17-3.84,25.92-1.6,7.36-2.23,9.92-2.23,19.19.31,3.21,2.55,5.13,4.8,5.13a15.05,15.05,0,0,0,9.91-3.52c8-5.76,15-12.8,22.07-20.16,3.84-3.84,22.73-22.72,28.49-26.87,12.79-7.37,14.39-11.52,30.07-11.52C538.6,392.52,538.28,393.15,539.88,394.44ZM440.05,349c1.92-2.88,2.88-6.08,5.44-7.68,2.24-.65,9.29,1.92,9.29,5.44,1.27,2.55,1.27,7-1.29,9-1.92,2.56-8,2.56-10.23,1C440.38,354.12,438.13,351.89,440.05,349Z"/><path class="cls-1" d="M535.05,466.75c-.63-2.88-1.59-5.45-2.24-8-.63-4.8-1.92-9-2.88-13.44-.63-3.2-2.55-27.84-1.92-32.31a197.28,197.28,0,0,1,10.56-62.07c1.61-3.2,2.57-7,4.49-10.88A138.4,138.4,0,0,1,549.78,326c1.59-1.28,2.55-3.2,3.84-4.16,1.91-1,3.83-1.92,5.43-1.92,3.2.64,6.08,1.92,7.68,5.12,2.24,4.48,2.88,9.6,3.2,14.08A42.55,42.55,0,0,1,568.65,357a24,24,0,0,0-1,6.41c-.64,4.47-2.56,8.95-4.16,13.11-1,2.25-1.28,4.48-2.56,6.4l-5.44,10.23c-1.6,3.84-3.83,7.68-5.44,11.21a6.13,6.13,0,0,0-.64,2.55c-.32,5.76-.63,11.85-.63,17.6a52.6,52.6,0,0,0-.65,12.48,48.62,48.62,0,0,0,0,6.72c.32,5.76.32,10.87,1.61,16.32,0,5.11,1.92,11.19,3.84,15.67,1.59,2.24,4.47,4.16,6.39,2.24,4.16-1.92,8-7.35,11.2-13.44,2.24-4.47,11.51-26.55,12.16-29.43,1-2.24,1-4.16,2.23-5.76a18.24,18.24,0,0,1,2.25-2.88c3.51-2.88,16.64-14.08,32.63-18.23,30.39-11.52,39-17.6,36.47-9.92-2.24,1-44.15,18.23-49,19.52-8,2.88-11.84,8.95-14.72,10.55-2.55,1.6-4.15,4.48-5.43,7.36,1-4.16-13.12,32.31-14.4,35.19-3.2,5.45-6.72,11.52-9.28,13.44-2.56,2.88-9.28,4.16-13.43,3.2C540.49,485.62,538.57,475.06,535.05,466.75Zm17.61-74.87c1-2.57,2.55-5.44,3.51-8a80.67,80.67,0,0,0,3.52-7.68c2.88-6.07,3.84-13.12,4.8-19.51a69.11,69.11,0,0,0,1-11.21c0-4.15,0-8.31-.32-12.79-.64-2.24-1.28-4.48-3.2-6.4-6.08-3.2-7.35,5.44-7.35,6.4a61,61,0,0,1-1.29,8.95,46.15,46.15,0,0,1,.33,6.41,99,99,0,0,0-1.29,13.11,90,90,0,0,0-.32,9.6,39.79,39.79,0,0,0-1,8.64c0,3.84,0,7.36-.31,10.56-.65,1.27,0,2.23,0,3.52C551.05,392.52,552.33,392.19,552.66,391.88Z"/><path class="cls-1" d="M650.22,469.3c-17-9.92-11.21-46.39,0-64.63,6.07-11.52,14.71-13.75,18.23-14.71,4.48-1.28,14.4-1.92,19.2,9.6-.65-8-2.57-15.36-1.92-23,1.6-23.36,3.84-47,13.75-68.47,1.92-4.48,5.12-9.28,7.37-13.11,1-1.6,1.92-3.52,3.19-3.84a10.18,10.18,0,0,1,5.76-2.25c2.88.33,6.08,1.61,7,4.49,2.56,4.48,2.88,9.27,3.2,13.75,1,5.12.32,11.21-1,16.64-.64,4.48-2.56,13.12-5.12,18.87-.64,1.61-1.28,3.21-2.24,5.13a92.64,92.64,0,0,0-4.8,9.92c-2.23,4.15-4.15,7-5.76,10.56a5.59,5.59,0,0,0-.31,2.55c.31,12.8-.33,18.55.31,31.68.65,14.07,1.28,28.79,4.16,42.54,1,4.8,2.88,8.64,7,11.21,3.2,3.19,9.28-.32,12.16-1.61,5.12-2.55,9-6.72,12.8-10.56a34.24,34.24,0,0,0,4.48-5.11,61,61,0,0,0,7-8.32,105.82,105.82,0,0,1,13.11-16c4.48-4.8,9.28-8,14.72-11.84a64.73,64.73,0,0,1,5.76-4.15c17.92-5.12,14.4-4.16,26.56-6.41,1.28,0,1-.31,1.92-.31,1.28,0,2.55.31,2.55,1.27,0,.65,0,1.29-.64,1.61-1,.31-.32.64-4.79,2.23-11.2,2.25-16.32,1.61-23,5.76a69.88,69.88,0,0,0-9.92,7c-6.72,5.44-12.79,9-17.92,16.32-7,9.6-12.15,19.2-19.52,28.16l-.31.31C737.24,460.34,728,469.3,718.68,468c-8.32-1.27-12.79-10.23-16.32-16.63-3.52-8.33-8.31-25.28-9-26.56-1.61,3.2-1.28,5.12-2.88,9-2.24,7.36-5.12,12.8-8.33,19.83-3.19,6.72-5.11,12.17-11.51,16C665.57,473.47,656,472.18,650.22,469.3Zm31.35-28.47c4.8-9.28,8.64-23.68,8.64-23.68,0-2.56-3.21-9.91-3.21-9.91-2.23-5.45-6.72-11.21-9.6-11.21-4.15,0-9.27,5.13-10.87,8.33-7.68,14.07-9.28,24-8.64,40,0,5.76,1.92,11.84,5.44,13.44C668.45,458.42,676.13,455.87,681.57,440.83ZM708.12,358c-1.27,2.57,7-11.83,8.33-16,2.55-6.72,3.19-12.8,4.47-18.56,0-3.84,1.28-7.36,1.28-11.2s0-7.35-.32-11.19a15.5,15.5,0,0,0-3.52-5.76c-1.91-1.92-4.79-.65-6.08,1.6L711,301c-2.88,38.07-2.88,41.27-3.19,56.94Z"/><path class="cls-1" d="M458.18,609.92c-4.1.8-10,2.78-19.55,3.56-12.79.86-16.78,2.61-33.58-.58-12.45-1.78-26.05-2.44-36.46,7.79.07.64,14.83,22.11,15.9,42.28-.06,7.75-1.41,12.73-6.76,19.47-13.18,16.69-25.24,21-39,21.63-7.48-.74-17.21-6.69-22-14.19-8.31-16.09-5.64-37.35,9.17-53.89,8.39-11,18.3-14.39,20-16.19-4.14-7.89-13.69-23.53-19-30.63-17.69,14-20,35.51-26.48,38.2l-4.15.17.7-4.93c3.08-6.8,10.71-21.55,27-39.54a113.69,113.69,0,0,1-8.63-13.17c-10.78-15.17-12.54-43.95-5.64-51.2,9.17-15.24,20.78-15,29.26-11.47,8.9,7.34,20.67,14.34,10.42,45.16-.73,2-6.14,13.62-7.79,16.06-.24.68-3.13,3.58-2.38,4.46,2.25,2.64,7.49,11.69,13.22,19.39,5,7.15,9.71,16.91,11.71,20.22,1.72-1.8,17.29-9.11,39.53-3.32,21.14,4.29,44.52-2.29,47.95-3.35C464.11,602.77,461.6,608.87,458.18,609.92Zm-122.71-44c5.91-12.94,5.91-12.94,10-21.46,1.72-10.2,7.07-25-10.84-32.23-2.66-.67-4.61-.77-6.71.44-1.83.86-9.27,11.72-4.18,30.45C325.06,548.48,327.18,555.64,335.47,565.94Zm24.1,82.23a67.29,67.29,0,0,0-6.45-13.75c-1.71,1.82-15.52,10.51-18.29,14.38-2.21,3.15-6.58,9.78-8,14.13-3.41,9.43-8,22.52,3.36,31.51,8,5.18,11.67,6,21.56,2.63,18.36-8.26,13.86-19.33,14.11-25.48C365.58,663.89,362.68,655.53,359.57,648.17Z"/><path class="cls-1" d="M466.56,662.74c-1-2.79-2.21-5.23-3.14-7.69-1.19-4.7-2.95-8.68-4.43-13-1-3.12-5.76-27.36-5.64-31.89a197,197,0,0,1,3.29-62.87c1.22-3.37,1.72-7.29,3.18-11.32a145.64,145.64,0,0,1,5-14.77c1.44-1.45,2.17-3.47,3.34-4.56,1.78-1.19,3.57-2.36,5.17-2.55,3.25.27,6.26,1.21,8.22,4.19,2.74,4.19,4,9.2,4.81,13.61a42.68,42.68,0,0,1,.81,18,23.44,23.44,0,0,0-.2,6.47c-.13,4.52-1.52,9.19-2.63,13.5-.68,2.35-.75,4.61-1.79,6.66l-4.22,10.8c-1.13,4-2.92,8.07-4.11,11.76a5.92,5.92,0,0,0-.32,2.61c.34,5.76.73,11.83,1.4,17.55a53,53,0,0,0,.8,12.47,49.88,49.88,0,0,0,.78,6.68c1,5.68,1.58,10.76,3.49,16,.59,5.09,3.21,10.9,5.64,15.14,1.84,2,4.92,3.6,6.61,1.47,3.9-2.38,7.08-8.23,9.57-14.64,1.7-4.71,8.35-27.71,8.65-30.64.7-2.34.48-4.25,1.56-6a17.85,17.85,0,0,1,1.89-3.11c3.15-3.27,14.89-15.9,30.3-21.9,28.85-15,36.72-22,35.09-14.07-2.13,1.21-41.75,23.23-46.38,25.06-7.6,3.79-10.71,10.27-13.38,12.18-2.36,1.89-3.62,4.95-4.56,7.95.48-4.24-9.27,33.62-10.21,36.62-2.54,5.78-5.34,12.23-7.66,14.43-2.21,3.16-8.73,5.2-13,4.73C474.16,680.85,471,670.58,466.56,662.74Zm8.81-76.41c.66-2.66,1.91-5.7,2.56-8.36a84,84,0,0,0,2.61-8c2.16-6.38,2.29-13.49,2.51-20a70,70,0,0,0-.35-11.23c-.48-4.13-1-8.26-1.81-12.68-.89-2.14-1.79-4.29-3.92-6-6.4-2.48-6.68,6.25-6.57,7.2a57.32,57.32,0,0,1-.23,9,46.7,46.7,0,0,1,1.07,6.33,100.82,100.82,0,0,0,.25,13.17,92.71,92.71,0,0,0,.79,9.57,40,40,0,0,0,.05,8.69c.45,3.82.86,7.33.91,10.52-.49,1.36.26,2.23.41,3.51C473.86,587.16,475.08,586.68,475.37,586.33Z"/><path class="cls-1" d="M601.76,637.28c-5.54-.63-8.85-4.12-12.15-7.6-7.21-6.57-13.91-17-15.38-26.87-.3-2.54-.91-5-1.21-7.59a66.51,66.51,0,0,1-.61-8,5.77,5.77,0,0,0,.33-2.61c.1-2,1.19-3.68,2-5.38,1.31-2.41,3-4.86,4.57-7.63a.67.67,0,0,0,.56-.7c.29-.36.88-.75,1.44-1.46a8.84,8.84,0,0,1,1.72-1.81c.81-1.39,2.08-1.53,3.66-1.73,9.59-3.36,20.2-3.63,29.65.09a11.86,11.86,0,0,1,6.63,4.38,21.64,21.64,0,0,1,2.86,5.15,33.08,33.08,0,0,1,2,5.89,20.32,20.32,0,0,1,.78,3.77l.21,1.9L630,587c1.19-.8,6.87-4.68,9.29-5.92,3-1.64,5.48-2.88,8.18-4.51,2.75-1.27,5.11-3.15,7.6-3.76a71.28,71.28,0,0,1,11.26-2.94,75.56,75.56,0,0,1,8.38,0,10.85,10.85,0,0,1,4,.83,23.74,23.74,0,0,1,7.63,2c1.35.5,2.84,2.25,3.95,3.4,1.41,1.14,1.21,2.12,0,2.91l-.95.12c-.35-.29-1-.53-1.39-.82-3.4-1.54-6.76-2.75-10.12-4-2.34-.7-4.36-1.43-6.9-1.14a23,23,0,0,0-6.67.79,68,68,0,0,0-7.76,2.51,35.08,35.08,0,0,0-5.22,2.22,97,97,0,0,0-21.71,15.41,1,1,0,0,0-.84,1.07,21,21,0,0,1-.72,4.91c-.66,8.13-1.44,17.9-6.19,24.25-1.68,2.12-3,4.23-5.16,5.43-1.8,1.18-3.2,3-5.35,3.85a16,16,0,0,1-7.28,3.75A5.67,5.67,0,0,1,601.76,637.28ZM612,628a13.7,13.7,0,0,0,3.27-5.21,39.1,39.1,0,0,0,1.47-6.62c0-2.9.2-6.46.48-9.72a39.76,39.76,0,0,1,.25-6.15,2.48,2.48,0,0,0,.13-1.62c-.64.08-1.27.15-1.24.47a1.89,1.89,0,0,0-1.23.46,37.91,37.91,0,0,1-13.22-.07,34.17,34.17,0,0,1-8.3-2.25,6.49,6.49,0,0,1-3.41-1.55,20.52,20.52,0,0,0-3.16-2.19l.11.95a87.18,87.18,0,0,0,1.08,9.21A39.81,39.81,0,0,0,594,620.16a30,30,0,0,0,5.49,8.38c1.07.83,1.82,1.71,2.82,1.92a3.91,3.91,0,0,0,3,.62A18,18,0,0,0,612,628Zm3.4-37.13,1.59-.18c.32,0,.32,0,.28-.35a73.91,73.91,0,0,0-1.29-8.23,8.35,8.35,0,0,0-.89-2.14c-1.21-2.12-2.38-3.92-3.25-5.74a6.59,6.59,0,0,0-1.45-1.45,15.6,15.6,0,0,0-5.54-3.22c-1.69-.77-4-.83-6.22-.88a8.2,8.2,0,0,0-4.78.55,7.23,7.23,0,0,0-4.19,5.33c-.14,1.62.33,2.86.56,4.77a12.16,12.16,0,0,0,3.91,6,15.65,15.65,0,0,0,6.87,3.71c1.07.84,2.7,1,4.36,1.42a20.6,20.6,0,0,0,6.23.87Z"/><path class="cls-1" d="M860.54,550.06l-.88.74c-6.62,6.89-15.36,23.05-33.45,28.06-11.76,1.37-25.12,0-35.7-2.28-5.35-1.63-9.64-5.31-12.3-.49-3.69,9.78-4.31,23.7-6.7,33.64-1.59,5.67-2.87,11.29-4.47,16.95-2.25,13.81-7.95,14.47-12.91,16.33-8.08,2.56-12.74,1.16-14.82-2.79-1.75-4-7.9-23.55-8.34-27.37-.15-1.27-.94-2.46-1-3.41a1,1,0,0,0-.6.38c-1.46,4-4.25,18.86-8.82,23.89-3,4.56-6.92,4-10.59,5.75-7.86,4.48-10.28-5.23-11.1-12.23-.78-6.67-1.24-13.38-2.33-20a56.39,56.39,0,0,0-4.9-17.14c-1.83-4.63-4.86-8.47-8.2-12.26-2.28-3-2.16-4.58.07-7.74l2.45-3.82c3.94-2.08,5.83-5.2,11.44-6.81.8-1.38,4.25.46,5.32,4.21.65,2.81,4.38,18.16,4.2,16.57a66.52,66.52,0,0,1,1.24,7.92c1.28,8.22,2.1,15.2,2.75,23.52.12,3.85-.06,7.73.1,11.89.23,1.9-.59,3.29-.68,5.23,8,2,9.07-2.34,14.34-20.67.47-4.24,1.93-8.28,2.08-12.49.38-2.3-.24-4.8-.5-7-.41-3.49-.46-6.71-.86-10.21-.26-2.22,1.88-3.12,3-4.22,6.33-3.63,5.42-3.22,7.35-.54,2.38,3.92,4.77,7.83,6,12.51,1.78,6.89,3.54,13.77,5,21a66.34,66.34,0,0,1,1.27,8.23c.31,2.56,1,5.68,1.65,8.51a72,72,0,0,1,1.28,8.22c3.13,4.8,9.18-1.4,10.26-3.13.2-1,1-2.37,1.22-3.36.79-4.28,4.67-23.42,5.13-25.08,1-5.27.46-12.62.57-17.13.2-3.89,0-8.06,1.57-11.47,1-2,2.72-4.18,5.22-4.79,4.38-1.17,7.86,1,11.58,2.51,7.47,3.32,32.14,5,39.85,4.69,9.65-.16,23.07-20.42,31.44-25.89C858,550,859.59,550.16,860.54,550.06Zm0,0,.56-.72C861.76,549.59,861.17,550,860.54,550.06Z"/><path class="cls-1" d="M149.8,531.12a14,14,0,0,1,.36-4,66.56,66.56,0,0,1,2.19-6.39c.91-2.37.37-3.46-1.64-4.2a6.19,6.19,0,0,1-4.93-5.11c-.91-2.92,0-5.84,2-6.93a7.53,7.53,0,0,1,8.23.72c2,2.19,3.46,4.75,3.1,7.67a61.33,61.33,0,0,1-1.65,9.86c-.91,3.83-3.65,6.58-6.75,8.77A1,1,0,0,0,149.8,531.12Z"/><path class="cls-1" d="M175.73,570.6c-1.28-.18-2.37-11.14-1.46-17.89,1.09-13.69-.36-27,2.55-27a12.53,12.53,0,0,1,5.12.91c2,.91,2.18,3.29,1.82,5.48-.91,10.59-1.27,18.44-2.19,29.39a133.5,133.5,0,0,1,5.67-13.69c.72-1.46,1.27-3.11,1.82-4.39a26.28,26.28,0,0,1,3.1-5.84l2.19-3.1A13.34,13.34,0,0,1,198,531a6.94,6.94,0,0,1,2.56-1.28c1.64-.55,4-1.46,5.84-.91a3.23,3.23,0,0,1,1.64.73,5.8,5.8,0,0,1,2.38,4,28.83,28.83,0,0,1,.74,5.29c.53,8.4,0,14.61,2.55,22.28a7,7,0,0,0,1.64,2.38.89.89,0,0,0,1.28,0c.92-.38,6.57-5.3,9.31-8.59,1.1-1.64,5.85-8,6.76-9.13.36-.36,2.74-3.29,4-4a35.35,35.35,0,0,1,25.75-12.24.82.82,0,0,1,.91,0c.55.55,0,1.28-.73,1.64-2.37,1.47-16.8,5.3-19,7.49-1.82,1.83-4.2,3.28-6,5.29a28.2,28.2,0,0,0-2.74,3.47c-.19.19-3.1,3.29-3.1,4-4.39,6-9.87,12.78-15.89,17.16h-.37a7.43,7.43,0,0,1-6.21-.73,18.17,18.17,0,0,1-3.83-3.65c-.36-.72-.73-1.65-1.27-2.56a20.19,20.19,0,0,1-1.1-5.65L202,545.58c0-4.19-.18-8.57-1.09-11-.19-.91-.92-.91-1.83-.54-4.75,3.1-7.3,11.49-9.5,17a175.5,175.5,0,0,0-6.39,21.72c-.36.91-.72,2-1.64,2.38C180.47,575.53,176.27,571.7,175.73,570.6Zm85.82-39.07a.17.17,0,0,0,.17-.19v-.18l-.36.37Z"/><path class="cls-1" d="M276.22,529.19a11.94,11.94,0,0,1,.31-3.46,55.07,55.07,0,0,1,1.88-5.48c.78-2,.31-3-1.41-3.6a5.33,5.33,0,0,1-4.23-4.39c-.78-2.51,0-5,1.72-5.95a6.46,6.46,0,0,1,7.06.62c1.72,1.88,3,4.07,2.66,6.58A52.6,52.6,0,0,1,282.8,522c-.78,3.29-3.14,5.65-5.8,7.53A.86.86,0,0,0,276.22,529.19Z"/><path class="cls-1" d="M900,900H100V100H900Zm-793.33-6.67H893.33V106.67H106.67Z"/></svg>