<?xml version="1.0" encoding="utf-8"?>
<!-- Generator: Adobe Illustrator 26.0.0, SVG Export Plug-In . SVG Version: 6.00 Build 0)  -->
<svg version="1.1" id="Warstwa_1" xmlns="http://www.w3.org/2000/svg" xmlns:xlink="http://www.w3.org/1999/xlink" x="0px" y="0px"
	 viewBox="0 0 512 512" style="enable-background:new 0 0 512 512;" xml:space="preserve">
<style type="text/css">
	.st0{fill:#2575FC;}
</style>
<g>
	<path class="st0" d="M469.3,341.3c-11.8,0-21.3,9.6-21.3,21.3V448H64v-85.3c0-11.8-9.6-21.3-21.3-21.3s-21.3,9.6-21.3,21.3v106.7
		c0,11.8,9.6,21.3,21.3,21.3h426.7c11.8,0,21.3-9.6,21.3-21.3V362.7C490.7,350.9,481.1,341.3,469.3,341.3z"/>
	<path class="st0" d="M240.9,377.7c8.3,8.3,21.8,8.3,30.2,0l128-128c8.2-8.5,8-22-0.5-30.2c-8.3-8-21.4-8-29.6,0l-91.6,91.6V42.7
		c0-11.8-9.6-21.3-21.3-21.3c-11.8,0-21.3,9.6-21.3,21.3v268.5l-91.6-91.6c-8.5-8.2-22-8-30.2,0.5c-8,8.3-8,21.4,0,29.6L240.9,377.7
		z"/>
</g>
</svg>
