<?xml version="1.0" encoding="utf-8"?>
<!-- Generator: Adobe Illustrator 26.0.3, SVG Export Plug-In . SVG Version: 6.00 Build 0)  -->
<svg version="1.1" id="Warstwa_1" xmlns="http://www.w3.org/2000/svg" xmlns:xlink="http://www.w3.org/1999/xlink" x="0px" y="0px"
	 viewBox="0 0 178 67" style="enable-background:new 0 0 178 67;" xml:space="preserve">
<style type="text/css">
	.st0{fill:#C3CFE2;}
</style>
<g>
	<path class="st0" d="M168,66c-5.2,0-9.4-4.1-9.4-9.3c0-5.1,4.1-9.4,9.4-9.4c5,0,9.2,4.2,9.2,9.4S173.1,66,168,66z"/>
	<path class="st0" d="M36.9,57.8c0,0-2.7-3.5-23.8-31.7C27.7,10.4,39.4,2.5,44.9,2.5V1.8H15.2v0.7c5.7,0,7.4,12.2,0.9,19.3L0.8,38
		c0,0,3.9,5.3,9.1,12.7C19.3,64.4,20.4,65.2,30,65.2h16v-0.8C43.6,64.2,41.6,64,36.9,57.8z"/>
	<path class="st0" d="M90.9,57.9c0,0-4.5,6.7-18.6,7.3v-1c8.2-1.3,9.9-12.2-0.3-19.6L58.2,36c-12.8-7.9-15.9-18.8-8.3-28.3
		c0,0,4.6-6.1,17.9-6.7v1c-8.2,1.2-9.9,11,1,18l13.9,9.1C94.5,36.8,97.7,48.2,90.9,57.9z"/>
	<path class="st0" d="M71.5,1.9V1c14,0.4,19.4,4.1,19.4,4.1V20h-0.8C88.4,13.9,84.4,2.9,71.5,1.9z"/>
	<path class="st0" d="M153.3,45.5c0,11.9-7.9,20.5-23.8,20.5c-12.2,0-24.1-6.5-24.1-21.2V10.5c0-5.5,0.4-7.9-3.6-7.9V1.8h25.7v0.8
		c-3.9,0-3.7,1.4-3.7,7.9v34.9c0,10.6,5.6,15.1,14.1,15.1c9.6,0,14.5-6.7,14.5-15.1L153.3,45.5L153.3,45.5z"/>
</g>
</svg>
