<svg id="Capa_1" data-name="Capa 1" xmlns="http://www.w3.org/2000/svg" viewBox="0 0 958.73 258.67"><defs><style>.cls-1,.cls-2{fill:none;stroke:#fff;stroke-linecap:round;stroke-linejoin:round;}.cls-1{stroke-width:3px;}.cls-2{stroke-width:2.84px;}</style></defs><path class="cls-1" d="M852.8,843.54v21.29a7.89,7.89,0,0,0,7.86,7.86H1161a7.88,7.88,0,0,0,7.85-7.86V843.54Z" transform="translate(-211.61 -653.41)"/><path class="cls-1" d="M1168.83,662.77a7.87,7.87,0,0,0-7.85-7.86H860.66a7.88,7.88,0,0,0-7.86,7.86V843.54h316Z" transform="translate(-211.61 -653.41)"/><polygon class="cls-1" points="839.28 253.76 835.35 219.28 763.73 219.28 759.15 253.76 745.05 257.17 853.37 257.09 839.28 253.76"/><path class="cls-1" d="M1016.44,859.05a5.62,5.62,0,1,1-5.62-5.63A5.62,5.62,0,0,1,1016.44,859.05Z" transform="translate(-211.61 -653.41)"/><rect class="cls-1" x="651.44" y="11.99" width="295.57" height="166.42"/><path class="cls-1" d="M445.28,910.58H354.39a8.57,8.57,0,0,1-8.65-8.47V758.41a8.57,8.57,0,0,1,8.65-8.47h90.89a8.57,8.57,0,0,1,8.64,8.47v143.7A8.57,8.57,0,0,1,445.28,910.58Z" transform="translate(-211.61 -653.41)"/><path class="cls-1" d="M399.83,905.75a4.73,4.73,0,1,1,4.73-4.73A4.73,4.73,0,0,1,399.83,905.75Z" transform="translate(-211.61 -653.41)"/><rect class="cls-1" x="139.58" y="110.61" width="97.29" height="127.36"/><path class="cls-1" d="M448.51,891.41H351.15V764h97.36Z" transform="translate(-211.61 -653.41)"/><path class="cls-1" d="M401.61,756.5a1.78,1.78,0,1,1-1.78-1.78A1.78,1.78,0,0,1,401.61,756.5Z" transform="translate(-211.61 -653.41)"/><path class="cls-1" d="M776.14,898.3V753.73a4.92,4.92,0,0,0-4.91-4.92H535.49a4.92,4.92,0,0,0-4.91,4.92V898.3Z" transform="translate(-211.61 -653.41)"/><rect class="cls-1" x="326.58" y="103.16" width="230.15" height="126.89"/><path class="cls-1" d="M803.22,900.2c-.38-1.08-2.22-1.9-4.46-1.9H508c-2.24,0-4.08.82-4.45,1.9h-.08v4.7c0,1.27,16.45,5.68,18.71,5.68H784.58c2.26,0,18.71-4.41,18.71-5.68v-4.7Z" transform="translate(-211.61 -653.41)"/><rect class="cls-1" x="1.5" y="141.11" width="55.98" height="116.06" rx="7.71"/><polygon class="cls-2" points="6.83 155 6.83 213.12 6.83 243.36 52.15 243.36 52.15 162.78 52.15 155 6.83 155"/><path class="cls-1" d="M245.18,903.38a4.09,4.09,0,1,0-4.09,4.09A4.09,4.09,0,0,0,245.18,903.38Z" transform="translate(-211.61 -653.41)"/><path class="cls-1" d="M242.07,802a1,1,0,1,0-1,1A1,1,0,0,0,242.07,802Z" transform="translate(-211.61 -653.41)"/><g id="Arrow_28" data-name="Arrow 28"><polygon class="cls-1" points="72.95 194.38 100.44 194.38 89.33 183.27 102.79 183.27 118.67 199.14 102.79 215.02 89.33 215.02 100.44 203.91 72.95 203.91 72.95 194.38"/><polygon class="cls-1" points="257.79 194.38 285.28 194.38 274.17 183.27 287.63 183.27 303.51 199.14 287.63 215.02 274.17 215.02 285.28 203.91 257.79 203.91 257.79 194.38"/><polygon class="cls-1" points="580 194.38 607.5 194.38 596.38 183.27 609.85 183.27 625.73 199.14 609.85 215.02 596.38 215.02 607.5 203.91 580 203.91 580 194.38"/></g></svg>