<?xml version="1.0" encoding="utf-8"?>
<!-- Generator: Adobe Illustrator 26.5.0, SVG Export Plug-In . SVG Version: 6.00 Build 0)  -->
<svg version="1.1" id="art" xmlns="http://www.w3.org/2000/svg" xmlns:xlink="http://www.w3.org/1999/xlink" x="0px" y="0px"
	 viewBox="0 0 640 1080" style="enable-background:new 0 0 640 1080;" xml:space="preserve">
<style type="text/css">
	.st0{fill:#EA227A;}
	.st1{fill:#FFFFFF;}
	.st2{fill:none;stroke:#EA227A;stroke-width:1.8822;stroke-miterlimit:9.9999;}
	.st3{fill:none;stroke:#90D8D4;stroke-width:1.5555;stroke-miterlimit:10;}
	.st4{fill:none;stroke:#FFFFFF;stroke-width:1.8822;stroke-miterlimit:10;}
</style>
<path id="circle-right" class="st0" d="M404-158.7h-1.9c8.7,108.1,55.8,209.5,132.6,285.9C615.3,208.3,723.4,256,837.6,261v-1.9
	C608.4,248.6,422.8,68.2,404-158.7z"/>
<path id="circle-bottom" class="st0" d="M-204.9,1162.1C-179.8,1048.9-78.7,963.9,42,963.9s221.8,84.9,247,198.2h1.6
	C265.5,1048,163.6,962.3,42,962.3s-223.5,85.7-248.6,199.8H-204.9z"/>
<g id="dots-grid-1">
	<circle class="st1" cx="14.3" cy="129.2" r="2.3"/>
	<path class="st0" d="M40.8,129.2c0,1.3-1,2.3-2.3,2.3s-2.3-1-2.3-2.3s1-2.3,2.3-2.3l0,0C39.8,126.9,40.8,127.9,40.8,129.2
		L40.8,129.2z"/>
	<circle class="st0" cx="62.8" cy="129.2" r="2.3"/>
	<path class="st0" d="M16.6,156c0,1.3-1,2.3-2.3,2.3s-2.3-1-2.3-2.3s1-2.3,2.3-2.3c0,0,0,0,0.1,0C15.6,153.7,16.6,154.8,16.6,156z"
		/>
	<path class="st0" d="M40.8,156c0,1.3-1,2.3-2.3,2.3s-2.3-1-2.3-2.3s1-2.3,2.3-2.3l0,0C39.8,153.7,40.8,154.7,40.8,156L40.8,156z"/>
	<path class="st0" d="M65.1,156c0,1.3-1,2.3-2.3,2.3s-2.3-1-2.3-2.3s1-2.3,2.3-2.3l0,0C64,153.7,65.1,154.7,65.1,156L65.1,156z"/>
	<circle class="st0" cx="14.3" cy="182.8" r="2.3"/>
	<path class="st0" d="M40.8,182.8c0,1.3-1,2.3-2.3,2.3s-2.3-1-2.3-2.3s1-2.3,2.3-2.3l0,0C39.8,180.5,40.8,181.6,40.8,182.8
		L40.8,182.8z"/>
	<circle class="st0" cx="62.8" cy="182.8" r="2.3"/>
	<path class="st1" d="M16.6,209.7c0,1.3-1,2.3-2.3,2.3s-2.3-1-2.3-2.3s1-2.3,2.3-2.3C15.5,207.4,16.6,208.4,16.6,209.7
		C16.6,209.6,16.6,209.7,16.6,209.7z"/>
	<path class="st0" d="M40.8,209.7c0,1.3-1,2.3-2.3,2.3s-2.3-1-2.3-2.3s1-2.3,2.3-2.3l0,0C39.8,207.4,40.8,208.4,40.8,209.7
		C40.8,209.6,40.8,209.7,40.8,209.7z"/>
	<path class="st0" d="M65.1,209.7c0,1.3-1,2.3-2.3,2.3s-2.3-1-2.3-2.3s1-2.3,2.3-2.3l0,0C64,207.3,65.1,208.4,65.1,209.7
		C65.1,209.6,65.1,209.6,65.1,209.7z"/>
	<circle class="st0" cx="14.3" cy="236.5" r="2.3"/>
	<path class="st0" d="M40.8,236.5c0,1.3-1,2.3-2.3,2.3s-2.3-1-2.3-2.3s1-2.3,2.3-2.3l0,0C39.8,234.2,40.8,235.2,40.8,236.5
		L40.8,236.5z"/>
	<circle class="st0" cx="62.8" cy="236.5" r="2.3"/>
	<circle class="st0" cx="14.3" cy="263.3" r="2.3"/>
	<path class="st0" d="M40.8,263.3c0,1.3-1,2.3-2.3,2.3s-2.3-1-2.3-2.3c0-1.3,1-2.3,2.3-2.3l0,0C39.8,261,40.8,262,40.8,263.3
		L40.8,263.3z"/>
	<circle class="st0" cx="62.8" cy="263.3" r="2.3"/>
	<path class="st0" d="M16.6,290.1c0,1.3-1,2.3-2.3,2.3s-2.3-1-2.3-2.3s1-2.3,2.3-2.3S16.6,288.9,16.6,290.1L16.6,290.1z"/>
	<path class="st1" d="M40.8,290.1c0,1.3-1,2.3-2.3,2.3s-2.3-1-2.3-2.3s1-2.3,2.3-2.3l0,0C39.8,287.9,40.8,288.9,40.8,290.1
		L40.8,290.1z"/>
	<path class="st0" d="M65.1,290.1c0,1.3-1,2.3-2.3,2.3s-2.3-1-2.3-2.3s1-2.3,2.3-2.3l0,0C64,287.8,65.1,288.9,65.1,290.1L65.1,290.1
		z"/>
	<circle class="st0" cx="14.3" cy="317" r="2.3"/>
	<path class="st0" d="M40.8,317c0,1.3-1,2.3-2.3,2.3s-2.3-1-2.3-2.3s1-2.3,2.3-2.3l0,0C39.8,314.7,40.8,315.7,40.8,317L40.8,317z"/>
	<circle class="st0" cx="62.8" cy="317" r="2.3"/>
</g>
<g id="dots-grid-2">
	<circle class="st0" cx="574.9" cy="672.2" r="2.3"/>
	<circle class="st0" cx="599.2" cy="672.2" r="2.3"/>
	<path class="st0" d="M625.7,672.2c0,1.3-1,2.3-2.3,2.3s-2.3-1-2.3-2.3s1-2.3,2.3-2.3l0,0C624.7,669.9,625.7,670.9,625.7,672.2z"/>
	<circle class="st1" cx="574.9" cy="699" r="2.3"/>
	<circle class="st0" cx="599.2" cy="699" r="2.3"/>
	<path class="st0" d="M625.7,699c0,1.3-1,2.3-2.3,2.3s-2.3-1-2.3-2.3s1-2.3,2.3-2.3l0,0C624.7,696.7,625.7,697.7,625.7,699z"/>
	<path class="st0" d="M577.2,725.8c0,1.3-1,2.3-2.3,2.3s-2.3-1-2.3-2.3s1-2.3,2.3-2.3l0,0C576.2,723.5,577.2,724.6,577.2,725.8z"/>
	<path class="st0" d="M601.5,725.8c0,1.3-1,2.3-2.3,2.3s-2.3-1-2.3-2.3s1-2.3,2.3-2.3l0,0C600.4,723.5,601.5,724.6,601.5,725.8z"/>
	<path class="st1" d="M625.7,725.8c0,1.3-1,2.3-2.3,2.3s-2.3-1-2.3-2.3s1-2.3,2.3-2.3l0,0C624.7,723.5,625.7,724.6,625.7,725.8z"/>
	<circle class="st0" cx="574.9" cy="752.7" r="2.3"/>
	<circle class="st0" cx="599.2" cy="752.7" r="2.3"/>
	<path class="st0" d="M625.7,752.7c0,1.3-1,2.3-2.3,2.3s-2.3-1-2.3-2.3s1-2.3,2.3-2.3l0,0C624.7,750.4,625.7,751.4,625.7,752.7z"/>
	<path class="st0" d="M577.2,779.5c0,1.3-1,2.3-2.3,2.3s-2.3-1-2.3-2.3s1-2.3,2.3-2.3l0,0C576.2,777.2,577.2,778.2,577.2,779.5z"/>
	<path class="st0" d="M601.5,779.5c0,1.3-1,2.3-2.3,2.3s-2.3-1-2.3-2.3s1-2.3,2.3-2.3l0,0C600.4,777.2,601.5,778.2,601.5,779.5z"/>
	<path class="st0" d="M625.7,779.5c0,1.3-1,2.3-2.3,2.3s-2.3-1-2.3-2.3s1-2.3,2.3-2.3l0,0C624.7,777.2,625.7,778.2,625.7,779.5z"/>
	<circle class="st0" cx="574.9" cy="806.3" r="2.3"/>
	<circle class="st0" cx="599.2" cy="806.3" r="2.3"/>
	<path class="st0" d="M625.7,806.3c0,1.3-1,2.3-2.3,2.3s-2.3-1-2.3-2.3s1-2.3,2.3-2.3l0,0C624.7,804,625.7,805,625.7,806.3z"/>
	<circle class="st0" cx="574.9" cy="833.1" r="2.3"/>
	<circle class="st0" cx="599.2" cy="833.1" r="2.3"/>
	<path class="st0" d="M625.7,833.1c0,1.3-1,2.3-2.3,2.3s-2.3-1-2.3-2.3s1-2.3,2.3-2.3l0,0C624.7,830.8,625.7,831.9,625.7,833.1z"/>
	<path class="st0" d="M577.2,860c0,1.3-1,2.3-2.3,2.3s-2.3-1-2.3-2.3s1-2.3,2.3-2.3l0,0C576.2,857.7,577.2,858.7,577.2,860z"/>
	<path class="st1" d="M601.5,860c0,1.3-1,2.3-2.3,2.3s-2.3-1-2.3-2.3s1-2.3,2.3-2.3l0,0C600.4,857.7,601.5,858.7,601.5,860z"/>
	<path class="st0" d="M625.7,860c0,1.3-1,2.3-2.3,2.3s-2.3-1-2.3-2.3s1-2.3,2.3-2.3l0,0C624.7,857.7,625.7,858.7,625.7,860z"/>
</g>
<g id="circles-small">
	
		<ellipse transform="matrix(0.7071 -0.7071 0.7071 0.7071 -164.3074 590.9559)" class="st2" cx="631.2" cy="493.8" rx="57.7" ry="57.7"/>
	<circle class="st3" cx="23" cy="645" r="30.7"/>
</g>
<g id="dots_00000061460371086103021360000012434429319437091726_">
	<circle class="st1" cx="74.8" cy="386.7" r="5"/>
	<circle class="st1" cx="530.9" cy="309.6" r="8.7"/>
	<circle class="st1" cx="388.4" cy="1034.3" r="4.3"/>
	<circle class="st0" cx="173.6" cy="811.7" r="4.3"/>
	<path class="st1" d="M220.5,924.4c0,3.3-2.6,5.9-5.9,5.9s-5.9-2.6-5.9-5.9c0-3.3,2.6-5.9,5.9-5.9l0,0
		C217.9,918.5,220.5,921.1,220.5,924.4z"/>
</g>
<g id="lines">
	<line class="st3" x1="234.5" y1="63" x2="163.3" y2="134.2"/>
	<line class="st3" x1="558.7" y1="599.3" x2="485.8" y2="672.2"/>
	<line class="st4" x1="105.8" y1="856.5" x2="35" y2="927.3"/>
	<line class="st4" x1="464.9" y1="164.5" x2="394.1" y2="235.2"/>
</g>
</svg>
