<?xml version="1.0" encoding="utf-8"?>
<!-- Generator: Adobe Illustrator 26.5.0, SVG Export Plug-In . SVG Version: 6.00 Build 0)  -->
<svg version="1.1" id="art" xmlns="http://www.w3.org/2000/svg" xmlns:xlink="http://www.w3.org/1999/xlink" x="0px" y="0px"
	 viewBox="0 0 1280 1080" style="enable-background:new 0 0 1280 1080;" xml:space="preserve">
<style type="text/css">
	.st0{fill:#EA227A;}
	.st1{fill:#FFFFFF;}
	.st2{fill:none;stroke:#EA227A;stroke-width:1.8822;stroke-miterlimit:9.9999;}
	.st3{fill:none;stroke:#90D8D4;stroke-width:1.5555;stroke-miterlimit:10;}
	.st4{fill:none;stroke:#FFFFFF;stroke-width:1.8822;stroke-miterlimit:10;}
</style>
<path id="circle-right" class="st0" d="M907.4,0h-1.9c8.7,108.1,55.8,209.5,132.6,285.9c80.6,81.1,188.7,128.8,302.9,133.8v-1.9
	C1111.8,407.3,926.2,226.9,907.4,0z"/>
<path id="circle-bottom" class="st0" d="M212.8,1080C237.9,966.8,339,881.8,459.7,881.8s221.8,84.9,247,198.2h1.6
	c-25.1-114.1-127-199.8-248.6-199.8S236.2,965.9,211.1,1080H212.8z"/>
<g id="dots-grid-1">
	<path class="st0" d="M18,100.9c0,1.3-1,2.3-2.3,2.3s-2.3-1-2.3-2.3s1-2.3,2.3-2.3l0,0C17,98.6,18,99.6,18,100.9L18,100.9z"/>
	<circle class="st0" cx="39.9" cy="100.9" r="2.3"/>
	<circle class="st1" cx="64.2" cy="100.9" r="2.3"/>
	<path class="st0" d="M90.7,100.9c0,1.3-1,2.3-2.3,2.3s-2.3-1-2.3-2.3s1-2.3,2.3-2.3l0,0C89.7,98.6,90.7,99.6,90.7,100.9L90.7,100.9
		z"/>
	<circle class="st0" cx="112.7" cy="100.9" r="2.3"/>
	<path class="st0" d="M18,127.7c0,1.3-1,2.3-2.3,2.3s-2.3-1-2.3-2.3s1-2.3,2.3-2.3l0,0C17,125.4,18,126.4,18,127.7L18,127.7z"/>
	<path class="st0" d="M42.2,127.7c0,1.3-1,2.3-2.3,2.3s-2.3-1-2.3-2.3s1-2.3,2.3-2.3C41.2,125.4,42.2,126.4,42.2,127.7L42.2,127.7z"
		/>
	<path class="st0" d="M66.5,127.7c0,1.3-1,2.3-2.3,2.3c-1.3,0-2.3-1-2.3-2.3s1-2.3,2.3-2.3c0,0,0,0,0.1,0
		C65.5,125.4,66.5,126.5,66.5,127.7z"/>
	<path class="st0" d="M90.7,127.7c0,1.3-1,2.3-2.3,2.3s-2.3-1-2.3-2.3s1-2.3,2.3-2.3l0,0C89.7,125.4,90.7,126.4,90.7,127.7
		L90.7,127.7z"/>
	<path class="st0" d="M115,127.7c0,1.3-1,2.3-2.3,2.3s-2.3-1-2.3-2.3s1-2.3,2.3-2.3l0,0C113.9,125.4,115,126.4,115,127.7L115,127.7z
		"/>
	<path class="st1" d="M18,154.5c0,1.3-1,2.3-2.3,2.3s-2.3-1-2.3-2.3s1-2.3,2.3-2.3l0,0C17,152.2,18,153.3,18,154.5L18,154.5z"/>
	<circle class="st0" cx="39.9" cy="154.5" r="2.3"/>
	<circle class="st0" cx="64.2" cy="154.5" r="2.3"/>
	<path class="st0" d="M90.7,154.5c0,1.3-1,2.3-2.3,2.3s-2.3-1-2.3-2.3s1-2.3,2.3-2.3l0,0C89.7,152.2,90.7,153.3,90.7,154.5
		L90.7,154.5z"/>
	<circle class="st0" cx="112.7" cy="154.5" r="2.3"/>
	<path class="st0" d="M18,181.4c0,1.3-1,2.3-2.3,2.3s-2.3-1-2.3-2.3s1-2.3,2.3-2.3l0,0C17,179.1,18,180.1,18,181.4
		C18,181.3,18,181.4,18,181.4z"/>
	<path class="st0" d="M42.2,181.4c0,1.3-1,2.3-2.3,2.3s-2.3-1-2.3-2.3s1-2.3,2.3-2.3C41.2,179.1,42.2,180.1,42.2,181.4
		C42.2,181.3,42.2,181.4,42.2,181.4z"/>
	<path class="st1" d="M66.5,181.4c0,1.3-1,2.3-2.3,2.3c-1.3,0-2.3-1-2.3-2.3s1-2.3,2.3-2.3C65.4,179.1,66.5,180.1,66.5,181.4
		C66.5,181.3,66.5,181.4,66.5,181.4z"/>
	<path class="st0" d="M90.7,181.4c0,1.3-1,2.3-2.3,2.3s-2.3-1-2.3-2.3s1-2.3,2.3-2.3l0,0C89.7,179.1,90.7,180.1,90.7,181.4
		C90.7,181.3,90.7,181.4,90.7,181.4z"/>
	<path class="st0" d="M115,181.4c0,1.3-1,2.3-2.3,2.3s-2.3-1-2.3-2.3s1-2.3,2.3-2.3l0,0C113.9,179,115,180.1,115,181.4
		C115,181.3,115,181.3,115,181.4z"/>
	<path class="st0" d="M18,208.2c0,1.3-1,2.3-2.3,2.3s-2.3-1-2.3-2.3s1-2.3,2.3-2.3l0,0C17,205.9,18,206.9,18,208.2L18,208.2z"/>
	<circle class="st0" cx="39.9" cy="208.2" r="2.3"/>
	<circle class="st0" cx="64.2" cy="208.2" r="2.3"/>
	<path class="st0" d="M90.7,208.2c0,1.3-1,2.3-2.3,2.3s-2.3-1-2.3-2.3s1-2.3,2.3-2.3l0,0C89.7,205.9,90.7,206.9,90.7,208.2
		L90.7,208.2z"/>
	<circle class="st0" cx="112.7" cy="208.2" r="2.3"/>
	<path class="st0" d="M18,235c0,1.3-1,2.3-2.3,2.3s-2.3-1-2.3-2.3s1-2.3,2.3-2.3l0,0C17,232.7,18,233.7,18,235L18,235z"/>
	<circle class="st1" cx="39.9" cy="235" r="2.3"/>
	<circle class="st0" cx="64.2" cy="235" r="2.3"/>
	<path class="st0" d="M90.7,235c0,1.3-1,2.3-2.3,2.3s-2.3-1-2.3-2.3s1-2.3,2.3-2.3l0,0C89.7,232.7,90.7,233.7,90.7,235L90.7,235z"/>
	<circle class="st0" cx="112.7" cy="235" r="2.3"/>
	<path class="st0" d="M18,261.8c0,1.3-1,2.3-2.3,2.3s-2.3-1-2.3-2.3s1-2.3,2.3-2.3l0,0C17,259.6,18,260.6,18,261.8L18,261.8z"/>
	<path class="st0" d="M42.2,261.8c0,1.3-1,2.3-2.3,2.3s-2.3-1-2.3-2.3s1-2.3,2.3-2.3C41.2,259.6,42.2,260.6,42.2,261.8L42.2,261.8z"
		/>
	<path class="st0" d="M66.5,261.8c0,1.3-1,2.3-2.3,2.3c-1.3,0-2.3-1-2.3-2.3s1-2.3,2.3-2.3C65.5,259.5,66.5,260.6,66.5,261.8
		L66.5,261.8z"/>
	<path class="st1" d="M90.7,261.8c0,1.3-1,2.3-2.3,2.3s-2.3-1-2.3-2.3s1-2.3,2.3-2.3l0,0C89.7,259.6,90.7,260.6,90.7,261.8
		L90.7,261.8z"/>
	<path class="st0" d="M115,261.8c0,1.3-1,2.3-2.3,2.3s-2.3-1-2.3-2.3s1-2.3,2.3-2.3l0,0C113.9,259.5,115,260.6,115,261.8L115,261.8z
		"/>
	<path class="st0" d="M18,288.7c0,1.3-1,2.3-2.3,2.3s-2.3-1-2.3-2.3s1-2.3,2.3-2.3l0,0C17,286.4,18,287.4,18,288.7L18,288.7z"/>
	<circle class="st0" cx="39.9" cy="288.7" r="2.3"/>
	<circle class="st0" cx="64.2" cy="288.7" r="2.3"/>
	<path class="st0" d="M90.7,288.7c0,1.3-1,2.3-2.3,2.3s-2.3-1-2.3-2.3s1-2.3,2.3-2.3l0,0C89.7,286.4,90.7,287.4,90.7,288.7
		L90.7,288.7z"/>
	<circle class="st0" cx="112.7" cy="288.7" r="2.3"/>
</g>
<g id="dots-grid-2">
	<circle class="st0" cx="993.2" cy="672.2" r="2.3"/>
	<circle class="st0" cx="1017.5" cy="672.2" r="2.3"/>
	<path class="st0" d="M1044,672.2c0,1.3-1,2.3-2.3,2.3s-2.3-1-2.3-2.3s1-2.3,2.3-2.3l0,0C1043,669.9,1044,670.9,1044,672.2z"/>
	<path class="st0" d="M1068.3,672.2c0,1.3-1,2.3-2.3,2.3s-2.3-1-2.3-2.3s1-2.3,2.3-2.3l0,0C1067.2,669.9,1068.3,670.9,1068.3,672.2z
		"/>
	<path class="st1" d="M1092.5,672.2c0,1.3-1,2.3-2.3,2.3s-2.3-1-2.3-2.3s1-2.3,2.3-2.3l0,0C1091.5,669.9,1092.5,670.9,1092.5,672.2z
		"/>
	<circle class="st0" cx="1114.5" cy="672.2" r="2.3"/>
	<path class="st0" d="M1141,672.2c0,1.3-1,2.3-2.3,2.3s-2.3-1-2.3-2.3s1-2.3,2.3-2.3l0,0C1140,669.9,1141,670.9,1141,672.2z"/>
	<circle class="st1" cx="993.2" cy="699" r="2.3"/>
	<circle class="st0" cx="1017.5" cy="699" r="2.3"/>
	<path class="st0" d="M1044,699c0,1.3-1,2.3-2.3,2.3s-2.3-1-2.3-2.3s1-2.3,2.3-2.3l0,0C1043,696.7,1044,697.7,1044,699z"/>
	<path class="st0" d="M1068.3,699c0,1.3-1,2.3-2.3,2.3s-2.3-1-2.3-2.3s1-2.3,2.3-2.3l0,0C1067.2,696.7,1068.3,697.7,1068.3,699z"/>
	<path class="st0" d="M1092.5,699c0,1.3-1,2.3-2.3,2.3s-2.3-1-2.3-2.3s1-2.3,2.3-2.3l0,0C1091.5,696.7,1092.5,697.7,1092.5,699
		L1092.5,699z"/>
	<circle class="st0" cx="1114.5" cy="699" r="2.3"/>
	<path class="st0" d="M1141,699c0,1.3-1,2.3-2.3,2.3s-2.3-1-2.3-2.3s1-2.3,2.3-2.3l0,0C1140,696.7,1141,697.7,1141,699z"/>
	<path class="st0" d="M995.5,725.8c0,1.3-1,2.3-2.3,2.3s-2.3-1-2.3-2.3s1-2.3,2.3-2.3l0,0C994.5,723.5,995.5,724.6,995.5,725.8z"/>
	<path class="st0" d="M1019.8,725.8c0,1.3-1,2.3-2.3,2.3s-2.3-1-2.3-2.3s1-2.3,2.3-2.3l0,0C1018.7,723.5,1019.8,724.6,1019.8,725.8z
		"/>
	<path class="st1" d="M1044,725.8c0,1.3-1,2.3-2.3,2.3s-2.3-1-2.3-2.3s1-2.3,2.3-2.3l0,0C1043,723.5,1044,724.6,1044,725.8z"/>
	<path class="st0" d="M1068.3,725.8c0,1.3-1,2.3-2.3,2.3s-2.3-1-2.3-2.3s1-2.3,2.3-2.3l0,0C1067.2,723.5,1068.3,724.6,1068.3,725.8z
		"/>
	<path class="st0" d="M1092.5,725.8c0,1.3-1,2.3-2.3,2.3s-2.3-1-2.3-2.3s1-2.3,2.3-2.3l0,0C1091.5,723.5,1092.5,724.5,1092.5,725.8
		L1092.5,725.8z"/>
	<path class="st0" d="M1116.8,725.8c0,1.3-1,2.3-2.3,2.3s-2.3-1-2.3-2.3s1-2.3,2.3-2.3l0,0C1115.7,723.5,1116.8,724.6,1116.8,725.8z
		"/>
	<path class="st0" d="M1141,725.8c0,1.3-1,2.3-2.3,2.3s-2.3-1-2.3-2.3s1-2.3,2.3-2.3l0,0C1140,723.5,1141,724.6,1141,725.8z"/>
	<circle class="st0" cx="993.2" cy="752.7" r="2.3"/>
	<circle class="st0" cx="1017.5" cy="752.7" r="2.3"/>
	<path class="st0" d="M1044,752.7c0,1.3-1,2.3-2.3,2.3s-2.3-1-2.3-2.3s1-2.3,2.3-2.3l0,0C1043,750.4,1044,751.4,1044,752.7z"/>
	<path class="st0" d="M1068.3,752.7c0,1.3-1,2.3-2.3,2.3s-2.3-1-2.3-2.3s1-2.3,2.3-2.3l0,0C1067.2,750.4,1068.3,751.4,1068.3,752.7z
		"/>
	<path class="st1" d="M1092.5,752.7c0,1.3-1,2.3-2.3,2.3s-2.3-1-2.3-2.3s1-2.3,2.3-2.3l0,0C1091.5,750.4,1092.5,751.4,1092.5,752.7
		C1092.5,752.6,1092.5,752.6,1092.5,752.7z"/>
	<circle class="st0" cx="1114.5" cy="752.7" r="2.3"/>
	<path class="st0" d="M1141,752.7c0,1.3-1,2.3-2.3,2.3s-2.3-1-2.3-2.3s1-2.3,2.3-2.3l0,0C1140,750.4,1141,751.4,1141,752.7z"/>
	<path class="st0" d="M995.5,779.5c0,1.3-1,2.3-2.3,2.3s-2.3-1-2.3-2.3s1-2.3,2.3-2.3l0,0C994.5,777.2,995.5,778.2,995.5,779.5z"/>
	<path class="st0" d="M1019.8,779.5c0,1.3-1,2.3-2.3,2.3s-2.3-1-2.3-2.3s1-2.3,2.3-2.3l0,0C1018.7,777.2,1019.8,778.2,1019.8,779.5z
		"/>
	<path class="st0" d="M1044,779.5c0,1.3-1,2.3-2.3,2.3s-2.3-1-2.3-2.3s1-2.3,2.3-2.3l0,0C1043,777.2,1044,778.2,1044,779.5z"/>
	<path class="st0" d="M1068.3,779.5c0,1.3-1,2.3-2.3,2.3s-2.3-1-2.3-2.3s1-2.3,2.3-2.3l0,0C1067.2,777.2,1068.3,778.2,1068.3,779.5z
		"/>
	<path class="st0" d="M1092.5,779.5c0,1.3-1,2.3-2.3,2.3s-2.3-1-2.3-2.3s1-2.3,2.3-2.3l0,0C1091.5,777.2,1092.5,778.2,1092.5,779.5z
		"/>
	<path class="st0" d="M1116.8,779.5c0,1.3-1,2.3-2.3,2.3s-2.3-1-2.3-2.3s1-2.3,2.3-2.3l0,0C1115.7,777.2,1116.8,778.2,1116.8,779.5z
		"/>
	<path class="st0" d="M1141,779.5c0,1.3-1,2.3-2.3,2.3s-2.3-1-2.3-2.3s1-2.3,2.3-2.3l0,0C1140,777.2,1141,778.2,1141,779.5z"/>
	<circle class="st0" cx="993.2" cy="806.3" r="2.3"/>
	<circle class="st0" cx="1017.5" cy="806.3" r="2.3"/>
	<path class="st0" d="M1044,806.3c0,1.3-1,2.3-2.3,2.3s-2.3-1-2.3-2.3s1-2.3,2.3-2.3l0,0C1043,804,1044,805,1044,806.3z"/>
	<path class="st1" d="M1068.3,806.3c0,1.3-1,2.3-2.3,2.3s-2.3-1-2.3-2.3s1-2.3,2.3-2.3l0,0C1067.2,804,1068.3,805,1068.3,806.3z"/>
	<path class="st0" d="M1092.5,806.3c0,1.3-1,2.3-2.3,2.3s-2.3-1-2.3-2.3s1-2.3,2.3-2.3l0,0C1091.5,804,1092.5,805,1092.5,806.3
		L1092.5,806.3z"/>
	<circle class="st0" cx="1114.5" cy="806.3" r="2.3"/>
	<path class="st0" d="M1141,806.3c0,1.3-1,2.3-2.3,2.3s-2.3-1-2.3-2.3s1-2.3,2.3-2.3l0,0C1140,804,1141,805,1141,806.3z"/>
	<circle class="st0" cx="993.2" cy="833.1" r="2.3"/>
	<circle class="st0" cx="1017.5" cy="833.1" r="2.3"/>
	<path class="st0" d="M1044,833.1c0,1.3-1,2.3-2.3,2.3s-2.3-1-2.3-2.3s1-2.3,2.3-2.3l0,0C1043,830.8,1044,831.9,1044,833.1z"/>
	<path class="st0" d="M1068.3,833.1c0,1.3-1,2.3-2.3,2.3s-2.3-1-2.3-2.3s1-2.3,2.3-2.3l0,0C1067.2,830.8,1068.3,831.9,1068.3,833.1z
		"/>
	<path class="st0" d="M1092.5,833.1c0,1.3-1,2.3-2.3,2.3s-2.3-1-2.3-2.3s1-2.3,2.3-2.3l0,0C1091.5,830.8,1092.5,831.9,1092.5,833.1
		L1092.5,833.1z"/>
	<circle class="st1" cx="1114.5" cy="833.1" r="2.3"/>
	<path class="st0" d="M1141,833.1c0,1.3-1,2.3-2.3,2.3s-2.3-1-2.3-2.3s1-2.3,2.3-2.3l0,0C1140,830.8,1141,831.9,1141,833.1z"/>
	<path class="st0" d="M995.5,860c0,1.3-1,2.3-2.3,2.3s-2.3-1-2.3-2.3s1-2.3,2.3-2.3l0,0C994.5,857.7,995.5,858.7,995.5,860z"/>
	<path class="st1" d="M1019.8,860c0,1.3-1,2.3-2.3,2.3s-2.3-1-2.3-2.3s1-2.3,2.3-2.3l0,0C1018.7,857.7,1019.8,858.7,1019.8,860z"/>
	<path class="st0" d="M1044,860c0,1.3-1,2.3-2.3,2.3s-2.3-1-2.3-2.3s1-2.3,2.3-2.3l0,0C1043,857.7,1044,858.7,1044,860z"/>
	<path class="st0" d="M1068.3,860c0,1.3-1,2.3-2.3,2.3s-2.3-1-2.3-2.3s1-2.3,2.3-2.3l0,0C1067.2,857.7,1068.3,858.7,1068.3,860z"/>
	<path class="st0" d="M1092.5,860c0,1.3-1,2.3-2.3,2.3s-2.3-1-2.3-2.3s1-2.3,2.3-2.3l0,0C1091.5,857.7,1092.5,858.7,1092.5,860
		L1092.5,860z"/>
	<path class="st0" d="M1116.8,860c0,1.3-1,2.3-2.3,2.3s-2.3-1-2.3-2.3s1-2.3,2.3-2.3l0,0C1115.7,857.7,1116.8,858.7,1116.8,860z"/>
	<path class="st0" d="M1141,860c0,1.3-1,2.3-2.3,2.3s-2.3-1-2.3-2.3s1-2.3,2.3-2.3l0,0C1140,857.7,1141,858.7,1141,860z"/>
</g>
<g id="circles-small">
	
		<ellipse transform="matrix(0.7071 -0.7071 0.7071 0.7071 -33.48 906.8013)" class="st2" cx="1077.9" cy="493.8" rx="57.7" ry="57.7"/>
	<circle class="st3" cx="115.2" cy="701.7" r="30.7"/>
</g>
<g id="dots_00000061460371086103021360000012434429319437091726_">
	<circle class="st1" cx="977.6" cy="309.6" r="8.7"/>
	<path class="st0" d="M1156.1,173.8c0,2.4-1.9,4.3-4.3,4.3s-4.3-1.9-4.3-4.3s1.9-4.3,4.3-4.3
		C1154.2,169.4,1156.1,171.3,1156.1,173.8C1156.1,173.7,1156.1,173.8,1156.1,173.8z"/>
	<circle class="st1" cx="806.7" cy="892.6" r="4.3"/>
	<circle class="st0" cx="265.8" cy="584.9" r="4.3"/>
	<path class="st0" d="M1260,712.3c0,2.4-1.9,4.3-4.3,4.3s-4.3-1.9-4.3-4.3c0-2.4,1.9-4.3,4.3-4.3S1260,709.9,1260,712.3L1260,712.3z
		"/>
	<path class="st1" d="M341,839.4c0,3.3-2.6,5.9-5.9,5.9s-5.9-2.6-5.9-5.9c0-3.3,2.6-5.9,5.9-5.9l0,0
		C338.4,833.5,341,836.1,341,839.4z"/>
</g>
<g id="lines">
	<line class="st3" x1="341" y1="63" x2="269.8" y2="134.2"/>
	<line class="st3" x1="937.1" y1="675.9" x2="864.2" y2="748.8"/>
	<line class="st4" x1="254.6" y1="743.1" x2="183.8" y2="813.9"/>
	<line class="st4" x1="911.6" y1="164.5" x2="840.8" y2="235.2"/>
</g>
</svg>
