<svg xmlns="http://www.w3.org/2000/svg" viewBox="0 0 1346.12 621.01">
  <defs>
    <style>
      .cls-1 {
        fill: #ea227a;
      }

      .cls-2, .cls-4, .cls-5 {
        fill: none;
        stroke-miterlimit: 10;
      }

      .cls-2 {
        stroke: #ea227a;
      }

      .cls-2, .cls-5 {
        stroke-width: 1.21px;
      }

      .cls-3 {
        fill: #fff;
      }

      .cls-4 {
        stroke: #90d8d4;
      }

      .cls-5 {
        stroke: #fff;
      }
    </style>
  </defs>
  <g id="OBJECTS">
    <g>
      <path class="cls-1" d="M1064.51,0h-1.23a292.34,292.34,0,0,0,85.27,183.82,292.46,292.46,0,0,0,194.72,86v-1.22C1195.94,261.82,1076.62,145.89,1064.51,0Z"/>
      <path class="cls-1" d="M297.52,694.17c16.12-72.79,81.16-127.4,158.72-127.4S598.84,621.38,615,694.17H616c-16.13-73.38-81.65-128.46-159.8-128.46s-143.67,55.08-159.8,128.46Z"/>
      <circle class="cls-2" cx="1174.1" cy="317.43" r="37.1" transform="translate(246.27 1103.83) rotate(-55.41)"/>
      <g>
        <circle class="cls-1" cx="139.61" cy="64.84" r="1.47"/>
        <path class="cls-1" d="M156.67,64.84a1.47,1.47,0,1,1-1.47-1.47A1.47,1.47,0,0,1,156.67,64.84Z"/>
        <path class="cls-1" d="M172.26,64.84a1.48,1.48,0,1,1-1.47-1.47A1.47,1.47,0,0,1,172.26,64.84Z"/>
        <circle class="cls-1" cx="186.37" cy="64.84" r="1.47"/>
        <circle class="cls-3" cx="201.96" cy="64.84" r="1.47"/>
        <path class="cls-1" d="M219,64.84a1.48,1.48,0,1,1-1.47-1.47A1.47,1.47,0,0,1,219,64.84Z"/>
        <circle class="cls-1" cx="233.13" cy="64.84" r="1.47"/>
        <path class="cls-3" d="M141.08,82.09a1.47,1.47,0,1,1-1.47-1.47A1.47,1.47,0,0,1,141.08,82.09Z"/>
        <path class="cls-1" d="M156.67,82.09a1.47,1.47,0,1,1-1.47-1.47A1.47,1.47,0,0,1,156.67,82.09Z"/>
        <path class="cls-1" d="M172.26,82.09a1.48,1.48,0,1,1-1.47-1.47A1.47,1.47,0,0,1,172.26,82.09Z"/>
        <path class="cls-1" d="M187.84,82.09a1.47,1.47,0,1,1-1.47-1.47A1.47,1.47,0,0,1,187.84,82.09Z"/>
        <path class="cls-1" d="M203.43,82.09A1.47,1.47,0,1,1,202,80.62,1.47,1.47,0,0,1,203.43,82.09Z"/>
        <path class="cls-1" d="M219,82.09a1.48,1.48,0,1,1-1.47-1.47A1.47,1.47,0,0,1,219,82.09Z"/>
        <path class="cls-1" d="M234.61,82.09a1.48,1.48,0,1,1-1.48-1.47A1.47,1.47,0,0,1,234.61,82.09Z"/>
        <circle class="cls-1" cx="139.61" cy="99.34" r="1.47"/>
        <path class="cls-1" d="M156.67,99.34a1.47,1.47,0,1,1-1.47-1.47A1.47,1.47,0,0,1,156.67,99.34Z"/>
        <path class="cls-3" d="M172.26,99.34a1.48,1.48,0,1,1-1.47-1.47A1.47,1.47,0,0,1,172.26,99.34Z"/>
        <circle class="cls-1" cx="186.37" cy="99.34" r="1.47"/>
        <circle class="cls-1" cx="201.96" cy="99.34" r="1.47"/>
        <path class="cls-1" d="M219,99.34a1.48,1.48,0,1,1-1.47-1.47A1.47,1.47,0,0,1,219,99.34Z"/>
        <circle class="cls-1" cx="233.13" cy="99.34" r="1.47"/>
        <path class="cls-1" d="M141.08,116.59a1.47,1.47,0,1,1-1.47-1.48A1.47,1.47,0,0,1,141.08,116.59Z"/>
        <path class="cls-1" d="M156.67,116.59a1.47,1.47,0,1,1-1.47-1.48A1.47,1.47,0,0,1,156.67,116.59Z"/>
        <path class="cls-1" d="M172.26,116.59a1.48,1.48,0,1,1-1.47-1.48A1.47,1.47,0,0,1,172.26,116.59Z"/>
        <path class="cls-1" d="M187.84,116.59a1.47,1.47,0,1,1-1.47-1.48A1.47,1.47,0,0,1,187.84,116.59Z"/>
        <path class="cls-3" d="M203.43,116.59a1.47,1.47,0,1,1-1.47-1.48A1.47,1.47,0,0,1,203.43,116.59Z"/>
        <path class="cls-1" d="M219,116.59a1.48,1.48,0,1,1-1.47-1.48A1.47,1.47,0,0,1,219,116.59Z"/>
        <path class="cls-1" d="M234.61,116.59a1.48,1.48,0,1,1-1.48-1.48A1.47,1.47,0,0,1,234.61,116.59Z"/>
        <circle class="cls-1" cx="139.61" cy="133.83" r="1.47"/>
        <path class="cls-1" d="M156.67,133.83a1.47,1.47,0,1,1-1.47-1.47A1.47,1.47,0,0,1,156.67,133.83Z"/>
        <path class="cls-1" d="M172.26,133.83a1.48,1.48,0,1,1-1.47-1.47A1.47,1.47,0,0,1,172.26,133.83Z"/>
        <circle class="cls-1" cx="186.37" cy="133.83" r="1.47"/>
        <circle class="cls-1" cx="201.96" cy="133.83" r="1.47"/>
        <path class="cls-1" d="M219,133.83a1.48,1.48,0,1,1-1.47-1.47A1.47,1.47,0,0,1,219,133.83Z"/>
        <circle class="cls-1" cx="233.13" cy="133.83" r="1.47"/>
        <circle class="cls-1" cx="139.61" cy="151.08" r="1.47"/>
        <path class="cls-1" d="M156.67,151.08a1.47,1.47,0,1,1-1.47-1.47A1.47,1.47,0,0,1,156.67,151.08Z"/>
        <path class="cls-1" d="M172.26,151.08a1.48,1.48,0,1,1-1.47-1.47A1.47,1.47,0,0,1,172.26,151.08Z"/>
        <circle class="cls-3" cx="186.37" cy="151.08" r="1.47"/>
        <circle class="cls-1" cx="201.96" cy="151.08" r="1.47"/>
        <path class="cls-1" d="M219,151.08a1.48,1.48,0,1,1-1.47-1.47A1.47,1.47,0,0,1,219,151.08Z"/>
        <circle class="cls-1" cx="233.13" cy="151.08" r="1.47"/>
        <path class="cls-1" d="M141.08,168.33a1.47,1.47,0,1,1-1.47-1.47A1.47,1.47,0,0,1,141.08,168.33Z"/>
        <path class="cls-1" d="M156.67,168.33a1.47,1.47,0,1,1-1.47-1.47A1.47,1.47,0,0,1,156.67,168.33Z"/>
        <path class="cls-1" d="M172.26,168.33a1.48,1.48,0,1,1-1.47-1.47A1.47,1.47,0,0,1,172.26,168.33Z"/>
        <path class="cls-1" d="M187.84,168.33a1.47,1.47,0,1,1-1.47-1.47A1.47,1.47,0,0,1,187.84,168.33Z"/>
        <path class="cls-1" d="M203.43,168.33a1.47,1.47,0,1,1-1.47-1.47A1.47,1.47,0,0,1,203.43,168.33Z"/>
        <path class="cls-3" d="M219,168.33a1.48,1.48,0,1,1-1.47-1.47A1.47,1.47,0,0,1,219,168.33Z"/>
        <path class="cls-1" d="M234.61,168.33a1.48,1.48,0,1,1-1.48-1.47A1.47,1.47,0,0,1,234.61,168.33Z"/>
        <circle class="cls-1" cx="139.61" cy="185.58" r="1.47"/>
        <path class="cls-3" d="M156.67,185.58a1.47,1.47,0,1,1-1.47-1.48A1.47,1.47,0,0,1,156.67,185.58Z"/>
        <path class="cls-1" d="M172.26,185.58a1.48,1.48,0,1,1-1.47-1.48A1.47,1.47,0,0,1,172.26,185.58Z"/>
        <circle class="cls-1" cx="186.37" cy="185.58" r="1.47"/>
        <circle class="cls-1" cx="201.96" cy="185.58" r="1.47"/>
        <path class="cls-1" d="M219,185.58a1.48,1.48,0,1,1-1.47-1.48A1.47,1.47,0,0,1,219,185.58Z"/>
        <circle class="cls-1" cx="233.13" cy="185.58" r="1.47"/>
      </g>
      <g>
        <circle class="cls-1" cx="1119.71" cy="432.11" r="1.47"/>
        <circle class="cls-1" cx="1135.29" cy="432.11" r="1.47"/>
        <path class="cls-1" d="M1152.35,432.11a1.47,1.47,0,1,1-1.47-1.47A1.47,1.47,0,0,1,1152.35,432.11Z"/>
        <path class="cls-1" d="M1167.94,432.11a1.47,1.47,0,1,1-1.47-1.47A1.47,1.47,0,0,1,1167.94,432.11Z"/>
        <path class="cls-3" d="M1183.53,432.11a1.48,1.48,0,1,1-1.48-1.47A1.48,1.48,0,0,1,1183.53,432.11Z"/>
        <circle class="cls-1" cx="1197.64" cy="432.11" r="1.47"/>
        <path class="cls-1" d="M1214.7,432.11a1.47,1.47,0,1,1-1.47-1.47A1.47,1.47,0,0,1,1214.7,432.11Z"/>
        <circle class="cls-3" cx="1119.71" cy="449.36" r="1.47"/>
        <circle class="cls-1" cx="1135.29" cy="449.36" r="1.47"/>
        <path class="cls-1" d="M1152.35,449.36a1.47,1.47,0,1,1-1.47-1.47A1.47,1.47,0,0,1,1152.35,449.36Z"/>
        <path class="cls-1" d="M1167.94,449.36a1.47,1.47,0,1,1-1.47-1.47A1.47,1.47,0,0,1,1167.94,449.36Z"/>
        <path class="cls-1" d="M1183.53,449.36a1.48,1.48,0,1,1-1.48-1.47A1.47,1.47,0,0,1,1183.53,449.36Z"/>
        <circle class="cls-1" cx="1197.64" cy="449.36" r="1.47"/>
        <path class="cls-1" d="M1214.7,449.36a1.47,1.47,0,1,1-1.47-1.47A1.47,1.47,0,0,1,1214.7,449.36Z"/>
        <path class="cls-1" d="M1121.18,466.61a1.48,1.48,0,1,1-1.47-1.47A1.47,1.47,0,0,1,1121.18,466.61Z"/>
        <path class="cls-1" d="M1136.76,466.61a1.47,1.47,0,1,1-1.47-1.47A1.47,1.47,0,0,1,1136.76,466.61Z"/>
        <path class="cls-3" d="M1152.35,466.61a1.47,1.47,0,1,1-1.47-1.47A1.47,1.47,0,0,1,1152.35,466.61Z"/>
        <path class="cls-1" d="M1167.94,466.61a1.47,1.47,0,1,1-1.47-1.47A1.47,1.47,0,0,1,1167.94,466.61Z"/>
        <path class="cls-1" d="M1183.53,466.61a1.48,1.48,0,1,1-1.48-1.47A1.47,1.47,0,0,1,1183.53,466.61Z"/>
        <path class="cls-1" d="M1199.11,466.61a1.47,1.47,0,1,1-1.47-1.47A1.47,1.47,0,0,1,1199.11,466.61Z"/>
        <path class="cls-1" d="M1214.7,466.61a1.47,1.47,0,1,1-1.47-1.47A1.47,1.47,0,0,1,1214.7,466.61Z"/>
        <circle class="cls-1" cx="1119.71" cy="483.86" r="1.47"/>
        <circle class="cls-1" cx="1135.29" cy="483.86" r="1.47"/>
        <path class="cls-1" d="M1152.35,483.86a1.47,1.47,0,1,1-1.47-1.47A1.47,1.47,0,0,1,1152.35,483.86Z"/>
        <path class="cls-1" d="M1167.94,483.86a1.47,1.47,0,1,1-1.47-1.47A1.47,1.47,0,0,1,1167.94,483.86Z"/>
        <path class="cls-3" d="M1183.53,483.86a1.48,1.48,0,1,1-1.48-1.47A1.47,1.47,0,0,1,1183.53,483.86Z"/>
        <circle class="cls-1" cx="1197.64" cy="483.86" r="1.47"/>
        <path class="cls-1" d="M1214.7,483.86a1.47,1.47,0,1,1-1.47-1.47A1.47,1.47,0,0,1,1214.7,483.86Z"/>
        <path class="cls-1" d="M1121.18,501.1a1.48,1.48,0,1,1-1.47-1.47A1.47,1.47,0,0,1,1121.18,501.1Z"/>
        <path class="cls-1" d="M1136.76,501.1a1.47,1.47,0,1,1-1.47-1.47A1.47,1.47,0,0,1,1136.76,501.1Z"/>
        <path class="cls-1" d="M1152.35,501.1a1.47,1.47,0,1,1-1.47-1.47A1.47,1.47,0,0,1,1152.35,501.1Z"/>
        <path class="cls-1" d="M1167.94,501.1a1.47,1.47,0,1,1-1.47-1.47A1.47,1.47,0,0,1,1167.94,501.1Z"/>
        <path class="cls-1" d="M1183.53,501.1a1.48,1.48,0,1,1-1.48-1.47A1.48,1.48,0,0,1,1183.53,501.1Z"/>
        <path class="cls-1" d="M1199.11,501.1a1.47,1.47,0,1,1-1.47-1.47A1.47,1.47,0,0,1,1199.11,501.1Z"/>
        <path class="cls-1" d="M1214.7,501.1a1.47,1.47,0,1,1-1.47-1.47A1.47,1.47,0,0,1,1214.7,501.1Z"/>
        <circle class="cls-1" cx="1119.71" cy="518.35" r="1.47"/>
        <circle class="cls-1" cx="1135.29" cy="518.35" r="1.47"/>
        <path class="cls-1" d="M1152.35,518.35a1.47,1.47,0,1,1-1.47-1.47A1.47,1.47,0,0,1,1152.35,518.35Z"/>
        <path class="cls-3" d="M1167.94,518.35a1.47,1.47,0,1,1-1.47-1.47A1.47,1.47,0,0,1,1167.94,518.35Z"/>
        <path class="cls-1" d="M1183.53,518.35a1.48,1.48,0,1,1-1.48-1.47A1.47,1.47,0,0,1,1183.53,518.35Z"/>
        <circle class="cls-1" cx="1197.64" cy="518.35" r="1.47"/>
        <path class="cls-1" d="M1214.7,518.35a1.47,1.47,0,1,1-1.47-1.47A1.47,1.47,0,0,1,1214.7,518.35Z"/>
        <circle class="cls-1" cx="1119.71" cy="535.6" r="1.47"/>
        <circle class="cls-1" cx="1135.29" cy="535.6" r="1.47"/>
        <path class="cls-1" d="M1152.35,535.6a1.47,1.47,0,1,1-1.47-1.47A1.47,1.47,0,0,1,1152.35,535.6Z"/>
        <path class="cls-1" d="M1167.94,535.6a1.47,1.47,0,1,1-1.47-1.47A1.47,1.47,0,0,1,1167.94,535.6Z"/>
        <path class="cls-1" d="M1183.53,535.6a1.48,1.48,0,1,1-1.48-1.47A1.47,1.47,0,0,1,1183.53,535.6Z"/>
        <circle class="cls-3" cx="1197.64" cy="535.6" r="1.47"/>
        <path class="cls-1" d="M1214.7,535.6a1.47,1.47,0,1,1-1.47-1.47A1.47,1.47,0,0,1,1214.7,535.6Z"/>
        <path class="cls-1" d="M1121.18,552.85a1.48,1.48,0,1,1-1.47-1.47A1.47,1.47,0,0,1,1121.18,552.85Z"/>
        <path class="cls-3" d="M1136.76,552.85a1.47,1.47,0,1,1-1.47-1.47A1.47,1.47,0,0,1,1136.76,552.85Z"/>
        <path class="cls-1" d="M1152.35,552.85a1.47,1.47,0,1,1-1.47-1.47A1.47,1.47,0,0,1,1152.35,552.85Z"/>
        <path class="cls-1" d="M1167.94,552.85a1.47,1.47,0,1,1-1.47-1.47A1.47,1.47,0,0,1,1167.94,552.85Z"/>
        <path class="cls-1" d="M1183.53,552.85a1.48,1.48,0,1,1-1.48-1.47A1.47,1.47,0,0,1,1183.53,552.85Z"/>
        <path class="cls-1" d="M1199.11,552.85a1.47,1.47,0,1,1-1.47-1.47A1.47,1.47,0,0,1,1199.11,552.85Z"/>
        <path class="cls-1" d="M1214.7,552.85a1.47,1.47,0,1,1-1.47-1.47A1.47,1.47,0,0,1,1214.7,552.85Z"/>
      </g>
      <circle class="cls-3" cx="112.18" cy="248.6" r="3.23"/>
      <circle class="cls-3" cx="1109.64" cy="199.06" r="5.57"/>
      <path class="cls-1" d="M1224.43,111.71a2.79,2.79,0,1,1-2.79-2.79A2.78,2.78,0,0,1,1224.43,111.71Z"/>
      <circle class="cls-3" cx="716.72" cy="147.94" r="2.79"/>
      <circle class="cls-3" cx="999.75" cy="573.83" r="2.79"/>
      <circle class="cls-1" cx="331.57" cy="375.99" r="2.79"/>
      <path class="cls-1" d="M1291.21,457.94a2.79,2.79,0,1,1-2.79-2.79A2.79,2.79,0,0,1,1291.21,457.94Z"/>
      <path class="cls-3" d="M379.92,539.63a3.79,3.79,0,1,1-3.79-3.79A3.79,3.79,0,0,1,379.92,539.63Z"/>
      <g>
        <rect class="cls-1" x="1036.75" y="40.47" width="5.12" height="17.26"/>
        <rect class="cls-1" x="1036.75" y="40.47" width="5.12" height="17.26" transform="translate(1088.42 -990.21) rotate(90)"/>
      </g>
      <g>
        <rect class="cls-1" x="313.1" y="199.04" width="3.32" height="11.19"/>
        <rect class="cls-1" x="313.1" y="199.04" width="3.32" height="11.19" transform="translate(519.39 -110.13) rotate(90)"/>
      </g>
      <g>
        <rect class="cls-3" x="1071.16" y="537.83" width="3.32" height="11.19"/>
        <rect class="cls-3" x="1071.16" y="537.83" width="3.32" height="11.19" transform="translate(1616.24 -529.4) rotate(90)"/>
      </g>
      <g>
        <rect class="cls-3" x="176.18" y="534.97" width="6" height="20.22"/>
        <rect class="cls-3" x="176.18" y="534.97" width="6" height="20.22" transform="translate(724.27 365.9) rotate(90)"/>
      </g>
      <line class="cls-4" x1="379.92" y1="40.47" x2="334.13" y2="86.27"/>
      <line class="cls-4" x1="1083.59" y1="434.52" x2="1036.75" y2="481.36"/>
      <line class="cls-5" x1="324.37" y1="477.74" x2="278.87" y2="523.23"/>
      <line class="cls-5" x1="1067.22" y1="105.74" x2="1021.73" y2="151.23"/>
      <circle class="cls-4" cx="164.91" cy="387.13" r="69.69"/>
    </g>
  </g>
</svg>
